<?xml version="1.0" encoding="UTF-8"?>
<svg xmlns="http://www.w3.org/2000/svg" xmlns:xlink="http://www.w3.org/1999/xlink" width="0" height="0">
  <defs>
    <symbol id="icon_beet" viewBox="0 0 512 512">
        <path fill="#9bf57d" d="M84 86c16-19 35 9 35 9 22-25 37 20 37 20s10-12 23-2c24 21 16 68 47 95-31-27-76-12-100-33-13-11-2-23-2-23s-47-8-26-33c0 0-30-15-14-33z"/>
        <path fill="#8ce16e" d="M84 86c-16 18 14 33 14 33-21 25 26 33 26 33s-11 12 2 23c24 21 69 6 100 33L84 86z"/>
        <path fill="#9bf57d" d="M428 86c-16-19-35 9-35 9-22-25-37 20-37 20s-10-12-23-2c-24 21-16 68-47 95 31-27 76-12 100-33 13-11 2-23 2-23s47-8 26-33c0 0 30-15 14-33z"/>
        <path fill="#8ce16e" d="M428 86c16 18-14 33-14 33 21 25-26 33-26 33s11 12-2 23c-24 21-69 6-100 33L428 86z"/>
        <path fill="#9bf57d" d="M256 0c26 0 18 35 18 35 35 0 8 44 8 44s18 0 18 18c0 35-44 62-44 106 0-44-44-71-44-106 0-18 18-18 18-18s-27-44 8-44c0 0-8-35 18-35z"/>
        <path fill="#8ce16e" d="M238 35c-35 0-8 44-8 44s-18 0-18 18c0 35 44 62 44 106V0c-26 0-18 35-18 35z"/>
        <path fill="#ff556e" d="M256 256a9 9 0 0 1-9-9V124a9 9 0 0 1 9-9 9 9 0 0 1 9 9v123a9 9 0 0 1-9 9z"/>
        <path fill="#ff6f82" d="M351 154a9 9 0 0 0-13-2c-11 9-61 46-82 76-21-30-71-67-82-75a9 9 0 0 0-11 14c33 24 81 65 84 82a9 9 0 0 0 11 7c3-1 6-4 7-7 3-17 51-58 84-82 4-3 5-9 2-13z"/>
        <path fill="#d74664" d="M256 247c-68 0-124 37-124 101 0 59 71 87 105 124 7 7 10 15 10 24v7a9 9 0 0 0 18 0v-7c0-9 3-17 10-24 34-37 105-65 105-124 0-64-56-101-124-101z"/>
        <path fill="#ff556e" d="M340 375a11 11 0 0 1-9-16l2-11c0-14-5-26-14-35a11 11 0 0 1 15-16c14 13 21 31 21 51 0 7-1 14-5 21-2 4-6 6-10 6zm-49-77h-3a113 113 0 0 0-10-3c-6-1-10-6-9-12s7-10 13-9l12 2a11 11 0 0 1-3 22z"/>
        <path fill="#be3c5a" d="M263 472c-20-37-60-65-60-124 0-34 9-60 23-77 4-4 4-10 0-15-3-3-7-5-11-4-48 12-83 46-83 96 0 59 71 87 105 124 7 7 10 15 10 24v7a9 9 0 0 0 18 0v-13c1-6 1-12-2-18z"/>
    </symbol>
    <symbol id="icon_broccoli" viewBox="0 0 498 498">
        <path fill="#4ad324" d="m365 215-26-3-62 78-4-88h-49l-4 88-62-77-26 2 84 150-7 133h79l-7-133z"/>
        <path fill="#34b515" d="m365 215-26-3-62 78-4-88h-49l9 109-75-98-26 2 104 138-27 145h79l-7-133z"/>
        <path fill="#239b02" d="m288 498-7-132 84-151-26-3-62 78-4-88h-49"/>
        <path fill="#1f7c00" d="m436 162 2-13c0-16-10-29-25-33a29 29 0 0 0-14-54c-8 0-15 4-20 8-1-16-14-28-30-28-5 0-9 1-13 4a57 57 0 0 0-88-36 57 57 0 0 0-88 36c-4-2-8-4-12-4-16 0-28 12-29 28-6-4-12-8-20-8a29 29 0 0 0-15 54c-14 4-24 17-24 33 0 5 0 9 2 13-10 4-16 14-16 25a29 29 0 0 0 40 27c8 16 25 26 44 26 15 0 29-7 38-18 4 2 9 3 14 3 9 0 16-4 22-10 6 5 14 8 23 8 8 0 16-2 22-7 7 5 14 7 23 7s16-3 23-8c5 6 13 10 21 10 5 0 10-2 14-3a50 50 0 0 0 82-8l12 2c16 0 28-13 28-29 0-11-7-21-16-25z"/>
        <path fill="#1a6000" d="m436 162 2-13c0-16-10-29-25-33a29 29 0 0 0-14-54c-8 0-15 4-20 8-1-16-14-28-30-28-5 0-9 1-13 4a57 57 0 0 0-88-36v207c8 5 14 7 23 7s17-3 23-8c6 6 13 10 22 10 4 0 9-2 13-4 9 12 23 19 39 19 19 0 35-11 44-27 3 2 7 3 11 3 16 0 29-13 29-29 0-12-7-22-16-26z"/>
        <g fill="#3b9b13">
          <ellipse cx="194.2" cy="32.7" rx="25.6" ry="12.8" transform="rotate(-45 194 33)"/>
          <ellipse cx="215.5" cy="72.2" rx="25.6" ry="12.8" transform="rotate(-45 215 72)"/>
          <ellipse cx="189.2" cy="147" rx="25.6" ry="12.8" transform="rotate(-45 189 147)"/>
          <ellipse cx="150.5" cy="94.5" rx="19.2" ry="9.6" transform="rotate(-45 151 94)"/>
          <ellipse cx="128.9" cy="148" rx="14.4" ry="7.2" transform="rotate(-45 129 148)"/>
          <ellipse cx="139.4" cy="57.2" rx="11.2" ry="5.6" transform="rotate(-45 139 57)"/>
          <ellipse cx="63.6" cy="180.1" rx="11.2" ry="5.6" transform="rotate(-45 64 180)"/>
          <ellipse cx="113.1" cy="186.1" rx="19.2" ry="9.6" transform="rotate(-45 113 186)"/>
          <ellipse cx="89.4" cy="83.4" rx="15.2" ry="8" transform="rotate(-45 89 83)"/>
          <ellipse cx="82.5" cy="138.6" rx="15.2" ry="8" transform="rotate(-45 82 139)"/>
        </g>
    </symbol>
    <symbol id="icon_cabbage" viewBox="0 0 1024 1024">
        <path fill="#558B2F" d="M469 939c-40 0-76-22-96-47-42 6-96-5-119-39-39-51-26-106-17-130l2-4 60-90c4-8 15-10 23-8l263 102c10 2 14 13 14 24l-25 138c0 5-2 7-4 9-3 2-30 38-88 43-4 2-8 2-13 2z"/>
        <path fill="#33691E" d="M523 875c-11-13-20-28-24-43l-4-13-9-32c-15-2-29-6-44-13l-11-4-13-6-11-5c-14-6-27-14-40-23-13 9-28 15-43 17h-4a165 165 0 0 1-90-4c39 47 84 49 103 45 10-3 21-5 32-11 25 17 55 30 87 38 2 5 2 7 2 11 13 41 58 77 105 73-15-7-26-18-36-30z"/>
        <path fill="#7CB342" d="M282 755c-35 0-84-8-116-53-21-32-25-90-6-128-36-32-70-100-47-171 21-66 81-96 122-106 0-32 8-71 40-103 56-57 128-43 132-43 11 3 18 13 15 24l9 501c-2 9-56 69-107 77 0-2-19 2-42 2z"/>
        <path fill="#689F38" d="M887 597c-32 32-76 34-102 30a277 277 0 0 0-414-339c-10-13-17-34-19-49v-11c0-6 0-13 2-19v-2c2-6 2-13 4-17 0 0 0-2 3-2 2-7 4-11 8-17v-2l13-18c-24 11-68 39-75 79 0 22 2 39 7 52a316 316 0 0 0 9 469h3c15-2 28-9 43-17 34 25 75 43 120 51l8 32c13 47 45 83 85 96 11 2 24 4 37 4 23 0 51-6 70-19 30 11 81 13 117-8 37-22 58-75 52-116 32-17 51-42 59-74 7-34-4-77-30-103z"/>
        <path fill="#558B2F" d="M785 627a282 282 0 0 1-183 154h-3l-29 6h-3c-12 2-23 2-34 2-8 0-17 0-25-2l-15-2h-9l9 32 4 13a320 320 0 0 0 311-156c30-2 69-30 79-75l-12 11c-30 19-66 19-90 17z"/>
        <path fill="#9CCC65" d="M747 597c-22-8-75 2-98 52-35-30-88-11-109 19-9-28-32-120-135-94l-145-13a277 277 0 0 0 538 30l-51 6z"/>
        <path fill="#7CB342" d="M450 572c-4 19-11 36-23 47-22 17-54 23-60 21a87 87 0 0 1-41 28c-6 2-12 2-21 2-11-15-19-30-26-47 9 2 18 4 26 4 4 0 6 0 9-2 15-4 27-21 34-38 10 6 23 12 40 12 9 0 17-2 28-6 9-4 17-13 23-23 3 2 7 2 11 2zm275 23c-6 0-12 2-19 4 9 30 32 58 58 67l21-39c-23-4-45-15-60-32z"/>
        <path fill="#AED581" d="M894 444c30-51 32-118 0-160-26-37-68-56-115-54 2-55-30-115-124-140-36-9-90 0-126 32-40-24-107-11-139 17-27 25-42 55-40 89 0 15 6 45 19 60a277 277 0 0 0-90 335c11 4 26 6 37 4 15-4 27-21 34-38 15 8 38 19 68 6 19-8 36-40 32-60 47 37 141-17 107-106l42-107-32-83c-4 0-8 0-12-2a277 277 0 0 1 230 392c30 2 81 2 113-42 17-24 21-71 13-105-4-17-9-30-17-38z"/>
        <path fill="#8BC34A" d="M533 192c-66 0-128 21-179 55 2 15 9 30 17 41 15-11 30-19 47-28-6 32-2 64 13 92 15 26 38 45 66 55 0 11-4 43 26 71 10 8 21 15 34 19 2-6 6-15 6-23l-8-9c-20-26-20-62-7-92h-4c-64 0-113-64-75-132h-2c22-4 43-8 66-8a277 277 0 0 1 252 392c13 2 30 2 47-2a320 320 0 0 0-299-431z"/>
        <path fill="#DCEDC8" d="M811 512a277 277 0 0 0-342-269 86 86 0 0 0 79 132c-13 30-13 67 7 92 19 26 55 28 87 26-4 17-2 47 11 57s40 11 53 7c11 42 45 66 79 72 15-36 26-76 26-117z"/>
        <path fill="#AED581" d="m661 267 11 12 13 18 4 6 4 8 5 9c2 2 2 6 4 11s2 8 2 12v15c0 5 0 11-2 15-4 22-15 41-26 54l-19 21s11-6 24-17c12-11 29-30 40-51l6-17c3-7 3-13 5-20v-19c-19-23-43-42-71-57z"/>
    </symbol>
    <symbol id="icon_carrot" viewBox="0 0 512 512">
        <g fill="#8cc153">
          <path d="M331 184a11 11 0 0 1-8-18A425 425 0 0 0 406 9a11 11 0 0 1 21 4c-1 0-4 20-17 51-11 28-33 71-71 116-2 3-5 4-8 4z"/>
          <path d="M362 170a11 11 0 0 1-8-18c54-58 140-86 144-88a11 11 0 1 1 7 21c-1 0-85 28-135 82-2 2-5 3-8 3z"/>
        </g>
        <g fill="#a0d468">
          <path d="M291 232a11 11 0 0 1-8-18L494 3a11 11 0 0 1 15 15L298 229c-2 2-5 3-7 3z"/>
          <path d="M362 170a11 11 0 0 1-5-20c52-29 118-43 121-43a11 11 0 0 1 4 21c-1 0-66 13-115 41l-5 1z"/>
        </g>
        <path fill="#fc6e51" d="M5 507c-41-41 163-272 254-363 60-60 169 49 109 109C277 344 46 548 5 507z"/>
        <path fill="#fff" d="M353 238C268 323 60 507 0 496c1 5 3 8 5 11 41 41 272-163 363-254 33-33 15-80-17-107 22 27 29 65 2 92z" opacity=".2"/>
        <path fill="#e9573f" d="M152 260c9 9 23 23 31 29a11 11 0 0 0 17-9c0-4-2-7-4-9-8-5-22-19-30-28l-14 17zm62-69c6 8 18 23 33 34a11 11 0 1 0 13-18c-15-10-27-26-32-32l-14 16zM94 329c7 8 17 18 25 23a11 11 0 0 0 17-8c0-4-2-7-4-9-8-5-19-16-24-22l-14 16zm-39 87a11 11 0 0 0 17-8c0-4-2-7-4-9l-16-14-12 18c5 5 11 11 15 13z"/>
    </symbol>
    <symbol id="icon_cauliflower" viewBox="0 0 1024 1024">
        <path fill="#E4EEFB" d="M686 668c-42 43-98 47-183 119-12 10-22 19-19 26 6 16 89 6 158-21 31-12 68-27 103-64 11-12 45-52 57-112 10-51-1-89-24-163-7-23-47-156-70-152-3 0-7 4-11 23-16 76 33 121 40 191 4 48-11 112-51 153z"/>
        <path fill="#34d62e" d="M351 768c-65-45-127-131-126-220 2-58 30-102 3-135a73 73 0 0 0-76-21c-43 15-34 140-30 200 7 101 10 152 49 182 44 35 96 14 121 51 22 32-7 71 11 85 22 16 62-41 125-35 41 4 46 31 85 33 44 1 54-33 108-55 84-36 126 16 174-21 38-29 12-62 65-142 28-44 51-60 44-78-8-23-59-35-89-16-25 16-20 45-42 87-22 41-54 63-81 82-80 56-229 81-341 3z"/>
        <path fill="#5BBF57" d="M351 768c-65-45-127-131-126-220 2-65 25-123 3-135-14-8-40 7-53 25-16 22-12 47-8 77 18 147 5 166 33 198 23 26 57 44 63 47 35 18 64 21 78 48 7 13 4 19 11 25 16 13 39-3 76-9 18-3 45 1 100 5 71 7 64 15 93 12 65-5 111-47 126-61 21-19 35-40 46-54 19-27 29-47 33-57 11-24 27-61 15-72-7-6-18-4-26-1-27 11-23 51-42 87-22 41-54 63-81 82-80 56-229 81-341 3z"/>
        <path fill="#34d62e" d="M330 218c-40 43-100 19-118 58-4 7-1 30 4 76 6 56 9 60 12 61 19 8 45-65 111-117 7-6 109-85 233-58 93 21 147 89 159 106 73 96 61 216 92 217 4 0 13-10 32-32 44-53 47-81 49-94a23 23 0 0 0 0-4c-1-45-57-45-97-115-38-66-13-96-51-132-39-35-102-40-147-27-36 10-34 22-61 28-75 16-135-90-175-71-28 13-6 62-43 104z"/>
        <path fill="#5BBF57" d="M370 230c-34 47-77 35-114 75-36 39-41 101-28 108 18 10 60-85 169-142 27-14 94-48 175-33 92 18 145 87 159 106 79 105 63 236 90 236h2c9-2 8-31 8-41-1-50-23-104-29-119-23-55-23-50-37-84-32-83-28-110-57-130-16-11-32-12-64-15-50-5-61 7-103 7-79 0-110-42-142-21-18 12-9 25-29 53z"/>
        <path fill="#71df53" d="m312 934-10-2c-6-1-11-4-16-9-15-10-11-33-9-49 3-16 4-28-3-37-8-12-20-14-42-18s-49-8-74-28c-46-36-50-93-57-198-3-31-6-77-3-119 2-30 14-92 47-102 26-8 49 22 60 13 17-13-37-80-12-120 9-13 25-28 65-36 20-4 40-8 56-25 15-18 18-36 20-55 3-19 6-43 29-54 30-15 60 8 89 30 28 22 60 46 91 39 9-2 13-4 19-8 8-6 19-14 41-20 51-14 122-9 167 33 25 23 29 46 33 69 3 19 6 39 22 67 19 33 39 48 57 62 20 14 40 30 44 62 4 46-30 82-58 111l-21 23c-5 6-9 14-11 22 11-12 22-11 28-10l30 4c15 5 25 13 30 25 5 11 4 24-3 37-5 9-12 18-20 28l-24 32c-25 38-30 64-35 86s-10 44-34 62c-31 24-60 20-88 15-26-4-53-8-91 8-20 9-33 19-46 29-18 14-36 28-67 28h-3c-27-1-42-11-54-19l-19-11c-6-2-13-3-20-3-23-2-91 38-108 38zM162 412a6 6 0 0 0-2 0c-6 2-16 18-19 65-3 39 0 84 2 113 7 102 11 144 41 167 17 13 35 17 55 20 24 4 52 9 71 36 16 24 12 49 9 67l-1 9 16-8c23-13 55-31 96-27 26 2 41 12 53 20 10 7 17 12 31 12 17 1 25-5 43-19 14-10 30-23 56-34 48-21 84-15 113-11 27 4 40 5 56-6 11-9 13-17 18-39 5-23 12-55 42-99l26-36c5-7 13-16 15-21-5-2-16-3-23-4-21-2-47-5-58-27-7-14-5-30 6-46 7-11 18-22 29-33 23-25 49-52 46-78-1-12-7-18-26-32a229 229 0 0 1-96-157c-4-20-5-31-20-44-33-31-89-33-126-23-16 4-22 9-29 14-8 5-16 11-34 15-50 11-92-21-126-47-12-9-24-18-33-23-6-3-10-3-11-3-3 1-4 13-5 22-3 21-7 50-31 77-26 28-56 34-80 39-22 4-31 7-36 15-10 18 2 49 11 74 5 11 9 22 11 31 4 22-3 33-11 39-6 5-17 10-33 4l-20-11c-8-4-20-11-26-11z"/>
        <path fill="#71df53" d="M519 832h-6a353 353 0 0 1-253-120c-33-41-55-92-62-148-16-49 12-127 25-156 24-53 63-96 115-129 44-29 97-48 154-54-47 7 118-39 216 52 29 27 48 75 85 170 35 89 34 117 34 129-1 37-13 93-63 152-37 44-87 75-147 91-30 8-63 13-98 13zM237 598c14 49 40 91 75 124a336 336 0 0 0 206 78c32 0 63-4 93-12 52-15 96-42 128-80 44-52 55-101 56-133 0-9 0-33-32-116-35-91-53-137-76-158-36-33-87-49-151-48-39 1-76 8-111 19-38 12-128 52-172 149-12 26-37 96-16 177z"/>
        <path fill="#71df53" d="M306 559c-8 0-14-5-16-11-3-13-3-25 0-36 5-18 16-26 26-34 7-5 14-11 20-21 9-17 8-31 7-46-1-17-2-35 12-51 17-20 49-25 96-16a16 16 0 1 1-6 32c-34-7-57-5-66 5-5 6-5 13-4 27 1 18 3 40-11 64-9 17-20 25-29 32-8 6-12 10-14 17-2 5-2 12 0 19l1 4c0 8-7 16-16 16zm21 41c-5 0-9-3-12-7l-2-2c-2-3-3-6-3-10a16 16 0 0 1 28-9l2 2c2 2 3 6 3 10 0 8-7 15-16 16zm290-147a16 16 0 0 1-15-21c7-20-2-42-19-51-20-11-47-3-58 18a16 16 0 1 1-28-15c20-37 65-51 101-32a73 73 0 0 1 38 66c0 9-1 17-3 25-2 6-8 10-16 10zM441 593c-8 0-14-5-16-12-8-32 4-65 31-81 15-9 34-12 53-8 22 6 41 21 50 42v3a16 16 0 0 1-30 8c-7-12-18-20-32-22-6-2-17-1-25 4-14 9-20 28-16 46l1 4c0 9-7 16-16 16zm135 109c-19 0-36-6-50-17-3-2-6-7-6-12a16 16 0 0 1 26-13c16 12 37 13 51 4 8-6 14-15 16-26l1-9c0-12-4-22-10-31-2-2-3-5-3-9a16 16 0 0 1 29-9 83 83 0 0 1 15 64c-4 19-15 36-30 47a69 69 0 0 1-39 11z"/>
    </symbol>
    <symbol id="icon_chili" viewBox="0 0 330 330">
        <path fill="#ff4b0c" d="M307 98a90 90 0 0 0-157 60 60 60 0 0 1-120 0 15 15 0 0 0-30-1 165 165 0 0 0 330 1c0-23-9-44-23-60z"/>
        <path fill="#ff2300" d="M330 158c0-23-9-44-23-60L97 308a165 165 0 0 0 233-150z"/>
        <path fill="#00b10e" d="m276 121-21-42V23a15 15 0 0 0-30 0v56l-21 42a15 15 0 0 0 26 14l10-19 10 19a15 15 0 1 0 26-14z"/>
    </symbol>
    <symbol id="icon_corn" viewBox="0 0 512 512">
        <path fill="#ffce54" d="M282 502h-13a673 673 0 0 0-28 0h-12c-22 0-37-3-48-16-13-16-19-50-19-102 0-68 3-165 17-243 8-41 18-74 31-96 13-23 28-34 45-34 18 0 33 11 46 34 13 22 23 55 31 96 14 78 17 175 17 243 0 52-6 86-19 102-11 13-26 16-48 16z"/>
        <path fill="#f6bb42" d="M172 386v-2l2-85h16v21h21l1-21h31v21h-31v21h31v43h21v-43h28v-21h-28v-21h31v3h22l-1-3h4v-22h-4l-1-21h20c3 46 4 91 4 128v2h21v-2c0-80-4-192-24-274v-3h-1l-12-41v-2h-1c-16-39-37-64-67-64-39 0-64 45-79 107h-1v3c-20 82-24 194-24 274v2h21zm161-151h-20l-2-22h20l2 22zm-7-64 3 21h-20l-3-21h20zm-5-28 1 6h-19l-3-21h18l3 15zm-8-36h-18l-4-22h16l6 22zm-40-79c7 5 13 12 19 23l7 13h-14a420 420 0 0 0-12-36zm-9 57h5l5 22h-10V85zm0 43h14l4 21h-18v-21zm0 43h21l3 21h-24v-21zm0 42h26l2 22h-28v-22zm0 43h29l1 21h-30v-21zm-21 21h-31l1-21h30v21zm0-42h-28l2-22h26v22zm0-43h-24l3-21h21v21zm0-43h-18l4-21h14v21zm-5-64h5v22h-10l5-22zm-19-34 12-18-9 31h-10l7-13zm-15 34h12l-5 22h-13l6-22zm-14 58 3-15h14l-4 21h-14l1-6zm-5 28h15l-2 21h-16l3-21zm-5 42h15l-1 22h-16l2-22zm-4 43h16l-1 21h-16l1-21z"/>
        <path fill="#8cc153" d="M281 509s-25 5-53 2c-31-4-53-10-65-27-23-34-46-249-46-249s175 98 164 274z"/>
        <path d="m206 508 22 3h1c15 0 34-1 53-5 3-59-15-109-41-150-22 45-38 96-35 152z" opacity=".1"/>
        <path fill="#a0d468" d="M227 511s104 5 127-29c22-33 41-290 41-290S216 335 227 511z"/>
        <path fill="#fff" d="M372 212c-5 62-21 242-40 270-15 23-68 28-101 29 20 1 103 1 123-29 22-33 41-290 41-290l-23 20z" opacity=".2"/>
    </symbol>
    <symbol id="icon_cucumber" viewBox="0 0 36 36">
        <path fill="#5C913B" d="M20.96 8.54a38.9 38.9 0 0 1-8.54 9.13C7.94 21.12.49 25.17 1 30.15c.38 3.64 2.71 5.67 8.14 5.28 5.19-.36 11.06-4.83 15.77-10.48 5.2-6.23 8.2-10.56 9.35-14.55.97-3.35 1.47-7.51-1.22-9.03-2.33-1.3-7.21-.4-12.08 7.17z"/>
        <circle cx="18.22" cy="31" r=".64" fill="#5C913B"/>
        <circle cx="21.42" cy="27.98" r=".64" fill="#5C913B"/>
        <circle cx="20.99" cy="28.67" r=".64" fill="#5C913B"/>
        <circle cx="23.96" cy="25.4" r=".64" fill="#5C913B"/>
        <circle cx="30.02" cy="17.93" r=".64" fill="#5C913B"/>
        <circle cx="33.71" cy="10.81" r=".64" fill="#5C913B"/>
        <circle cx="34.43" cy="4.06" r=".64" fill="#5C913B"/>
        <path fill="#77B255" d="M6.92 34.2c5.32-.39 11.34-4.96 16.16-10.75 5.32-6.39 8.4-10.82 9.58-14.9.69-2.37 1.14-5.13.46-7.12l-.08-.06c-2.33-1.3-7.21-.4-12.08 7.17a38.88 38.88 0 0 1-8.54 9.13C7.94 21.12.49 25.17 1 30.15a5.69 5.69 0 0 0 1.66 3.73c1.14.32 2.55.43 4.26.31z"/>
        <path fill="#5C913B" d="M16.5 25.75c-.44.1-.87-.03-1.26-.38-.4-.34-.58-.75-.54-1.2 0-.04.02-.13-.07-.16a.13.13 0 0 0-.15.03c-.47.53-.36 1.4.24 1.92.3.26.66.4 1.01.4s.7-.14.93-.4a.13.13 0 0 0 .01-.16c-.05-.08-.13-.06-.17-.05zm8.9-8.14c-.45-.02-.82-.25-1.12-.69-.3-.44-.36-.88-.2-1.3.01-.04.04-.12-.03-.18a.13.13 0 0 0-.15 0 1.21 1.21 0 0 0-.52.86c-.05.36.04.73.25 1.05.3.45.76.7 1.22.7.23 0 .46-.07.66-.2a.13.13 0 0 0 .05-.14c-.03-.1-.12-.1-.16-.1zm-5.55.98a.8.8 0 0 0 .58-.25.13.13 0 0 0 .02-.15c-.03-.05-.1-.07-.16-.06-.24.06-.47-.02-.7-.2-.21-.2-.31-.43-.29-.67 0-.05-.02-.13-.07-.15a.13.13 0 0 0-.15.03c-.3.34-.23.88.14 1.2.18.16.4.25.63.25zm8.93-7.26c-.22-.2-.32-.42-.3-.66.01-.06-.02-.13-.07-.15a.13.13 0 0 0-.14.03c-.3.33-.23.87.14 1.2a.96.96 0 0 0 .63.25c.23 0 .44-.1.58-.26a.13.13 0 0 0 .02-.15c-.03-.04-.1-.06-.16-.05a.8.8 0 0 1-.7-.21zm-4.3.23a.8.8 0 0 0 .59-.26.13.13 0 0 0 .01-.15c-.03-.04-.1-.06-.16-.05-.24.05-.47-.02-.7-.21-.21-.2-.31-.42-.29-.66 0-.06-.02-.13-.07-.15a.13.13 0 0 0-.15.03c-.3.33-.23.87.14 1.2a.95.95 0 0 0 .63.25zm6.2-6.68c-.25.06-.48-.02-.7-.2-.22-.2-.32-.43-.3-.67 0-.06-.02-.13-.07-.15a.13.13 0 0 0-.15.03c-.3.34-.23.88.14 1.2a.95.95 0 0 0 .63.25.8.8 0 0 0 .59-.26.13.13 0 0 0 .01-.14c-.03-.05-.1-.07-.16-.06zM5.81 28.21a1.3 1.3 0 0 1-.1-1.48.13.13 0 0 0-.01-.15.12.12 0 0 0-.15-.02c-.07.03-.13.07-.2.12a1.46 1.46 0 0 0-.22 2.07 1.47 1.47 0 0 0 2.07.23c.06-.04.1-.1.17-.16a.12.12 0 0 0 0-.15.13.13 0 0 0-.14-.05 1.3 1.3 0 0 1-1.42-.41zm9.72-7.37c.33 0 .65-.1.92-.33.06-.04.11-.1.17-.16a.12.12 0 0 0 0-.15.13.13 0 0 0-.14-.05 1.3 1.3 0 0 1-1.42-.41 1.3 1.3 0 0 1-.1-1.48.13.13 0 0 0-.01-.15.13.13 0 0 0-.15-.02l-.2.12a1.46 1.46 0 0 0-.22 2.08c.3.36.72.55 1.15.55zm9.62-14.16a1.3 1.3 0 0 1-.09-1.48.13.13 0 0 0-.02-.15.13.13 0 0 0-.15-.03l-.19.13a1.46 1.46 0 0 0-.23 2.07 1.47 1.47 0 0 0 2.08.23l.16-.16a.12.12 0 0 0 .01-.15.13.13 0 0 0-.14-.05 1.3 1.3 0 0 1-1.43-.41zm-12.6 22.38a.93.93 0 0 1-1.07.1.93.93 0 0 1-.45-.98.1.1 0 0 0-.05-.1.1.1 0 0 0-.12.03 1.32 1.32 0 0 0-.1.13 1.07 1.07 0 0 0-.1.82c.07.28.25.52.5.66a1.07 1.07 0 0 0 .82.1 1.07 1.07 0 0 0 .73-.65.1.1 0 0 0-.04-.12.1.1 0 0 0-.12 0zm-2.84-5.82a.93.93 0 0 1 .4-1 .1.1 0 0 0-.07-.18 1.09 1.09 0 0 0-.16.02 1.1 1.1 0 0 0-.67.5 1.08 1.08 0 0 0 .36 1.48 1.08 1.08 0 0 0 .81.13 1 1 0 0 0 .16-.05.1.1 0 0 0 .06-.11.1.1 0 0 0-.08-.09.93.93 0 0 1-.8-.7zm12.2-9.62a.94.94 0 0 1-1.03.25.94.94 0 0 1-.6-.89.1.1 0 0 0-.07-.1.1.1 0 0 0-.11.05.94.94 0 0 0-.07.15 1.08 1.08 0 1 0 2.02.78l.04-.16a.1.1 0 0 0-.05-.1.1.1 0 0 0-.13.02zm-1.15 9a.94.94 0 0 1-1.04.22.94.94 0 0 1-.57-.9.1.1 0 0 0-.07-.1.1.1 0 0 0-.11.04 1 1 0 0 0-.08.14 1.08 1.08 0 0 0 2 .85l.05-.16a.1.1 0 0 0-.05-.11.1.1 0 0 0-.13.02z"/>
        <circle cx="24.84" cy="20.72" r=".5" fill="#77B255"/>
        <circle cx="30.88" cy="12.22" r=".5" fill="#77B255"/>
        <circle cx="32.66" cy="7.22" r=".5" fill="#77B255"/>
        <circle cx="28" cy="16.75" r=".5" fill="#77B255"/>
        <circle cx="17.94" cy="28.34" r=".5" fill="#77B255"/>
        <circle cx="20.66" cy="25.5" r=".79" fill="#77B255"/>
        <circle cx="11.06" cy="32.94" r=".5" fill="#77B255"/>
        <circle cx="25.78" cy="19.97" r=".5" fill="#77B255"/>
        <circle cx="11.3" cy="19.83" r="1.42" fill="#77B255"/>
        <circle cx="5.7" cy="23.36" r=".98" fill="#77B255"/>
        <circle cx="26.45" cy="3.32" r=".98" fill="#77B255"/>
        <circle cx="1.95" cy="27.23" r=".69" fill="#77B255"/>
        <circle cx="2.48" cy="26.51" r=".69" fill="#77B255"/>
        <circle cx="1.85" cy="31.32" r=".86" fill="#77B255"/>
        <circle cx="13.51" cy="17.14" r=".64" fill="#77B255"/>
        <circle cx="27.48" cy="2.17" r=".64" fill="#77B255"/>
        <circle cx="31.45" cy="1.29" r=".64" fill="#77B255"/>
        <circle cx="16.73" cy="14.2" r=".64" fill="#77B255"/>
        <circle cx="19.7" cy="10.95" r=".64" fill="#77B255"/>
        <circle cx="19.13" cy="11.59" r=".64" fill="#77B255"/>
        <circle cx="22.01" cy="7.76" r=".64" fill="#77B255"/>
    </symbol>
    <symbol id="icon_cucumbers" viewBox="0 0 512 512">
        <path fill="#ffce54" d="M160 457.9a10.7 10.7 0 1 0 21.3 0v-21.3H160v21.3zm213.3 5.1v20a10.7 10.7 0 0 0 21.3 0v-20h-21.3z"/>
        <path fill="#8cc153" d="M373.3 110.2h21.3v45.1h-21.3zm-213.3 92h21.3v45.1H160z"/>
        <path fill="#a0d468" d="M384 148.7c-104.5 0-62.7 323.7 0 323.7s104.5-323.7 0-323.7zM170.7 234c-85.8 0-51.5 213.2 0 213.2 51.4 0 85.7-213.3 0-213.3z"/>
        <path fill="#8cc153" d="M329.8 51c-17-29.3-51.2-40.8-79.7-26.9a50 50 0 0 0-23 67 40.1 40.1 0 0 0 24.2 20.7c9.7 3 20.7 2.7 31.1-1a30.8 30.8 0 0 0 17.2-18.1c2.9-8 2-16.4-2.2-23.7l-.1-.2-.2-.3a10.6 10.6 0 1 0-18.2 11c1.1 2 1.4 3.8.7 5.8-1 3-3.5 5-4.3 5.4-10 3.6-23.4 2.3-29-9-7-14.3-1-31.4 13.2-38.4a36 36 0 0 1 28.6-1.5 44.5 44.5 0 0 1 23.2 19.8c8.1 14 14.5 36.2-23 67l13.6 16.5c18-14.8 29.5-30.2 34.3-45.7a59 59 0 0 0-6.4-48.4zm128.5 214.9a10.7 10.7 0 1 1-21.3 0 10.7 10.7 0 0 1 21.3 0zm-223.7 64a10.7 10.7 0 1 1-21.3 0 10.7 10.7 0 0 1 21.3 0zm-95.9-42.6a10.7 10.7 0 1 1-21.4 0 10.7 10.7 0 0 1 21.4 0zm0 85.3a10.7 10.7 0 1 1-21.4 0 10.7 10.7 0 0 1 21.4 0zm32-64a10.7 10.7 0 1 1-21.4 0 10.7 10.7 0 0 1 21.3 0zm21.3 74.6a10.7 10.7 0 1 1-21.3 0 10.7 10.7 0 0 1 21.3 0zM405.3 355a10.7 10.7 0 1 1-21.3 0 10.7 10.7 0 0 1 21.3 0zM352 397.7a10.7 10.7 0 1 1-21.4 0 10.7 10.7 0 0 1 21.4 0zm85.3 21.3a10.7 10.7 0 1 1-21.3 0 10.7 10.7 0 0 1 21.3 0zM352 180.7a10.7 10.7 0 1 1-21.4 0 10.7 10.7 0 0 1 21.4 0zm64 42.6a10.7 10.7 0 1 1-21.3 0 10.7 10.7 0 0 1 21.3 0zm-42.7 42.6a10.7 10.7 0 1 1-21.3 0 10.7 10.7 0 0 1 21.3 0z"/>
        <path fill="#a0d468" d="M509 152h.1a186.8 186.8 0 0 0-73.1-44.3 164 164 0 0 0-80.7-5.5c-33.4 6-66.5 22.5-98.5 49a196.5 196.5 0 0 1-90.6 44.2 164.9 164.9 0 0 1-75.5-4.6 200.6 200.6 0 0 1-72.8-39.3A10.6 10.6 0 0 0 0 159.3c0 3.1 1.3 6 3.4 7.8 1.3 1.3 32.1 29.6 80.4 44a191.1 191.1 0 0 0 85.5 5.4c35-6 69-22.5 101-49 29-23.8 58.7-38.7 88.3-44.2 23.4-4.4 47-2.9 70 4.5a168 168 0 0 1 65 38.8 10.7 10.7 0 1 0 15.5-14.5z"/>
    </symbol>
    <symbol id="icon_dill" viewBox="0 0 512.2 512.2" fill="#00b32d" stroke="#00b32d">
        <path d="M478 176c-19 0-38 2-56 5 6-5 11-6 11-6 8-2 15-10 13-18s-10-14-18-13c-11 2-41 15-49 48-53 18-93 50-117 85v-85c0-14 3-29 6-40 5 5 12 8 18 11 8 4 16 5 24 5 10 0 19-1 27-6s11-15 7-23-15-11-23-6c-5 3-16 3-25 0-7-2-10-6-13-11 11-13 24-24 40-32 14 19 40 38 75 38 10 0 16-6 16-16s-6-16-16-16c-19 0-34-8-42-17 20-5 40-8 61-8 10 0 16-7 16-16 0-10-6-16-16-16l-29 1c5-5 8-8 15-8 9 0 16-8 14-17 0-8-8-16-17-15-26 3-42 24-48 47-18 4-34 11-48 19-8-11-5-24 0-32s3-18-5-23c-7-4-16-3-21 5a60 60 0 0 0 0 69c-26 22-42 53-46 88-29-8-85-30-114-83 18-8 38-27 38-58 0-9-6-16-16-16-8 0-16 7-16 16 0 18-12 26-20 29-4-13-5-27-5-45 0-9-7-16-16-16-10 0-16 7-16 16l1 24c-6 0-17-5-24-16-4-8-14-11-20-6-8 5-12 14-7 22 11 21 35 34 53 34h5c5 16 11 30 19 41-8 0-18 0-29-3-8-3-16 3-17 11-2 8 3 18 11 20a150 150 0 0 0 61 1c38 39 88 55 110 61v150c-14-24-34-46-59-64l-2-1c-1 0-1-2-3-2 2-17 0-49-24-73-8-7-18-7-24 0-6 6-6 16 0 22 11 10 14 24 16 35-22-9-50-14-78-14-10 0-16 6-16 16 0 9 6 16 16 16 32 0 59 8 83 19a72 72 0 0 1-48 16c-10 0-16 6-16 16s6 16 16 16c38 0 62-14 75-29 45 37 66 95 66 141v27c0 10 6 16 16 16 9 0 16-6 16-16V368c0-41 30-94 88-126 11 17 32 32 59 32h8c8-2 14-8 14-18-1-8-8-14-17-14-16 1-28-5-34-13 29-11 61-18 99-18 10 0 16-6 16-16 0-9-11-19-19-19z"/>
    </symbol>
    <symbol id="icon_eggplant" viewBox="0 0 512 512">
        <path fill="#8cc153" d="M512 92a11 11 0 0 0-16-9c-33 20-37 42-37 44l21 3 4-9c3-4 10-12 23-20 3-2 5-5 5-9z"/>
        <path fill="#ac92eb" d="M241 221C79 167-21 230 4 337c29 126 220 108 316 43 141-95 133-173 133-173l-44-64s-106 99-168 78z"/>
        <path fill="#fff" d="M241 232c62 21 168-79 168-79l44 64v-10l-44-64s-106 99-168 78C92 171-4 220 0 311c4-84 98-127 241-79z" opacity=".2"/>
        <path d="M451 204c-6 29-31 87-131 155-96 65-287 83-316-43l-4-21c-1 13 0 27 4 42 29 126 220 108 316 43 141-95 133-173 133-173l-2-3z" opacity=".1"/>
        <path fill="#a0d468" d="m447 102-5 4-58 37a3882 3882 0 0 0-57 38c-2 1-7 4-6 11 1 1 2 8 11 9h21l13-1v9c1 23 1 27 5 31 4 3 8 3 10 3l17-2 8-1 2 9 7 19c3 8 7 16 15 16 7 0 10-6 13-12l8-16 20-47 28-69 3-9-55-29z"/>
    </symbol>
    <symbol id="icon_herb" viewBox="0 0 128 128">
        <path fill="#5b9821" d="M85 38s-11 3-27 26c-11 17-13 31-22 40-5 5-14 8-14 8h-6c-1 1-2 4 0 8 2 3 5 4 6 4l4-5c1 0 9-4 16-10 12-14 12-26 21-42 10-18 23-27 23-27l-1-2z"/>
        <path fill="#5b9821" d="M123 3c-1 0-26 0-38 12-16 14-12 33-12 33s18 4 32-8c15-14 18-36 18-37zM72 70l4 3c10 4 22 2 27 0 9-4 21-13 21-14s-6-4-14-6-18-2-26 1c-7 3-11 9-12 12l-5 1c-4 0-7 2-7 2l-3 6 9-4 6-1zM54 9l-8 13c-2 6-4 19 0 27s8 10 8 10l1 5-1 7 5-2V58s7-7 7-17c1-8 0-16-5-24-3-7-6-8-7-8zM6 25c-1 1 1 4 1 11 1 6 2 25 7 35s14 13 16 13l8 1s3 2 4 5l1 7 4-6-2-6-2-3s3-16-1-29c-6-16-14-22-23-25S7 24 6 25zm44 68 6-1h5s5-6 12-8c6-2 14-4 28 2 15 6 23 12 23 14l-20 10c-6 2-19 6-32 1-10-4-12-13-12-13l-5-1c-5 0-9 4-9 4l4-8z"/>
        <path fill="#8dc02c" d="M78 39c2 1 5-9 9-14s11-9 10-11-9 1-14 8c-6 8-6 16-5 17zm1 25c1 1 6-3 12-4 5-1 11 1 11-2-1-3-8-3-13-2s-11 6-10 8zM51 49l1-12c0-6 1-14-1-14s-4 5-4 12c0 5 1 14 4 14zM12 38v5c0 9 3 23 8 29 4 5 8 8 11 6s-2-6-5-11c-5-7-8-17-9-21s-2-9-5-8z"/>
        <path fill="#8dc02d" d="M67 92c1 3 7 1 13 1s12-2 11-4c0-2-7-3-13-2-5 0-11 3-11 5z"/>
    </symbol>
    <symbol id="icon_melon" viewBox="0 0 36 36">
        <path fill="#A6D388" d="M32 11c4.3 7.6 2 17.3-5.5 21.6a15 15 0 0 1-21-5.3c-5-8.6-2.4-18.1 5-22.4 7.4-4.3 18 0 21.4 6z"/>
        <path fill="#77B255" d="M24 6c3 1 6 4 8 7 .8 1.3.7 0-.3-2.3-3.7-6-14-10-21.2-5.8a14.8 14.8 0 0 0-6.4 7.4C4.8 11.5 5.5 11 6 11c1 0-1.9 3.3 1 11 3 8 3 4 3 4s-2-9-1-12 2-5 3-4 5 9 7 14c2.3 5.6 2-1-1-8-2.8-6.6-3-8-2-8s3.5 1.5 7 5c2 2 3 5 4 6s1-1 0-4c-.7-2.1-3-6-6-8-2.5-1.7 0-2 3-1z"/>
        <path fill="#5C913B" d="M12 6.4a1 1 0 0 1-1.4-.4 12 12 0 0 1-1.3-4.4 1 1 0 0 1 2-.1s.1 2 1 3.5a1 1 0 0 1-.4 1.4z"/>
        <path fill="#77B255" d="M12 30.5c-1-.5-1.8-2-2.4-3.2-.7-1.2.2-1.3.8-.2.7 1.3 1.2 1.7 2 3 .6 1.2.1.7-.4.4zm9.5.4c-.9-2-.8-3-1.7-5.1-.9-2-.7-4 .1-2a17 17 0 0 1 1.7 5.1l-.1 2zM27 19c1 3 0 2 1 5s1 5 1 0c0-3.2-1-6-2-7-1.6-1.6 0 2 0 2z"/>
    </symbol>
    <symbol id="icon_onion" iewBox="0 0 512 512">
        <path fill="#a0d468" d="M299 21c-6 0-11 5-11 11v223h21V32c0-6-4-11-10-11zm-86 64c-6 0-10 5-10 11v223h21V96c0-6-5-11-11-11z"/>
        <path fill="#8cc153" d="M261 339h54V100l-54-36zm-10 42h-54V142l54-35z"/>
        <path fill="#f6bb42" d="M331 245a11 11 0 1 1-22 0 11 11 0 0 1 22 0zm-128 0a11 11 0 1 1-22 0 11 11 0 0 1 22 0z"/>
        <path fill="#a0d468" d="M283 275h-54V36l54-36z"/>
        <g fill="#f6bb42">
          <path d="M288 501a11 11 0 1 1-21 0 11 11 0 0 1 21 0z"/>
          <path d="M267 501a11 11 0 1 1-22 0 11 11 0 0 1 22 0z"/>
          <path d="M245 501a11 11 0 1 1-21 0 11 11 0 0 1 21 0z"/>
        </g>
        <path fill="#ffce54" d="M405 363c0 76-67 138-149 138s-149-62-149-138c0-122 149-139 149-139s149 17 149 139z"/>
        <path fill="#fff" d="m256 224-11 2c34 6 139 35 139 137 0 73-61 133-139 138h11c82 0 149-62 149-138 0-122-149-139-149-139z" opacity=".2"/>
    </symbol>
    <symbol id="icon_paprika" viewBox="0 0 512 512">
        <path fill="#9a4c00" d="m338 45-32 9c-1 0-15 5-15 14l3 43-32 3v-1h-43V63c0-18 10-54 48-62l6-1 29 20 36 25z"/>
        <path fill="#723700" d="m338 45-32 9c-1 0-15 5-15 14l3 43-32 3v-1h-6V57s1-17 12-23c9-5 26-11 34-14l36 25z"/>
        <path fill="#008c48" d="m224 467 5 4-1 15-6 4c-1 1-22 17-50 17a66 66 0 0 1-37-11c-8-6-16-13-23-23-20-30-46-97-60-159-13-57-23-133 5-174 18-26 45-41 78-44l19-1c30 2 54 11 55 12l35 14-35 15-4 1c-35 17-50 53-43 107 13 98 27 189 62 223z"/>
        <g fill="#00a653">
          <path d="M375 240c-15 119-31 213-72 252a69 69 0 0 1-47 20c-78-2-99-115-119-272C117 84 256 94 256 94s28-2 58 10l5 2c33 16 66 52 56 134z"/>
          <path d="M455 140c-17-24-41-39-71-43a163 163 0 0 0-75 8c-6 2-14 4-15 14l-2 12 11 5 4 1c35 17 50 53 43 107-13 98-27 189-62 223l-5 5 1 14 6 4c1 1 22 17 50 17h10c20-3 36-15 50-34 20-30 46-97 60-159 13-57 23-133-5-174z"/>
        </g>
        <path fill="#008040" d="M375 240c-15 119-31 213-72 252a69 69 0 0 1-47 20V94s28-2 58 10l5 2c33 16 66 52 56 134z"/>
    </symbol>
    <symbol id="icon_peas" viewBox="0 0 1024 1024">
        <path fill="#7CB342" d="M903.7 84.6C864.4 84.6 748.6 99 661.3 256c-106.6 192-128 213.3-170.6 256s-256 213.3-256 213.3S128 810.7 106.7 896c0 0 41.4 42.7 127.4 42.7s256.6 0 491.2-234.7C896 512 896 298.7 896 298.7v-128c0-67.5 21.3-85.4 21.3-85.4s-4.9-.7-13.6-.7z"/>
        <path fill="#388E3C" d="M698.6 276.7C589.1 474 566.3 496.7 520.8 542.2 477 586 270.1 751.6 261.3 758.6c-22.6 18.2-78.1 70.2-103.2 121.1a170 170 0 0 0 76 16.3c83.4 0 238.5 0 460.2-221.3 156.1-176.4 159-374.2 159-376.1v-128c0-13.3.8-25.2 2-36-44.5 13.3-105 49.1-156.7 142.1z"/>
        <path fill="#C5E1A5" d="M682.7 437.3a53.3 53.3 0 1 0 106.6 0 53.3 53.3 0 1 0-106.6 0Zm64-160a42.7 42.7 0 1 0 85.3 0 42.7 42.7 0 1 0-85.3 0ZM576 576a64 64 0 1 0 128 0 64 64 0 1 0-128 0ZM469.3 693.3a53.3 53.3 0 1 0 106.7 0 53.3 53.3 0 1 0-106.7 0Zm-106.6 96a42.7 42.7 0 1 0 85.3 0 42.7 42.7 0 1 0-85.3 0Zm-128 42.7a42.7 42.7 0 1 0 85.3 0 42.7 42.7 0 1 0-85.3 0Z"/>
        <path fill="#8BC34A" d="M917.3 85.3S768 64 661.3 256s-128 213.3-170.6 256-256 213.3-256 213.3S128 810.7 106.7 896c0 0 213.3-64 448-298.7C725.3 405.3 704 320 832 170.7c43.9-51.3 85.3-85.4 85.3-85.4z"/>
    </symbol>
    <symbol id="icon_radish" viewBox="0 0 512 512">
        <path fill="#8cc153" d="M286.6 21.2a13 13 0 0 0-9.6-4.5h-.3c-4.8.1-9 3-15 10.2a127 127 0 0 0-12.5 18.2 117.4 117.4 0 0 0-16.4 55.8c0 36.7 13.7 80.8 15.3 85.7-2.5 24.5-7 71.5-7.7 97.2l21.3.6c.8-25.8 5.6-75.4 8-98.6 9-15 38.5-65.3 39.8-91.6 1.4-26.7-14.2-63.8-22.9-73z"/>
        <path fill="#a0d468" d="M389.4 110.1a12.2 12.2 0 0 0-8.8-3.3c-11 0-57.1 14.6-78.7 46.8-19 28.5-31 69.4-33.7 79.2a101 101 0 0 0-19 26c-7-14.8-14-28-20-38.7l-.1-2.4c-.2-4-4-97.3-20.2-134.4-7.5-17-20-36.7-34.3-54.2C151 .4 141.8 0 138.6 0h-.3c-2.9 0-8.2 1-12.3 7.5-6.3 10-8 31.4-7.4 48 .9 24.6 6.5 49 16 68.4 18 37.4 52.6 76.7 68.3 93.5a627.7 627.7 0 0 1 38.3 75.8l19.7-8.2-.6-1.5.8.3c8.8-21.6 18-32.4 24.4-37.8 15.4-6.7 71.5-32 87.7-53.5a107 107 0 0 0 17.8-46 146 146 0 0 0 2.4-19.6c.3-7.9-.2-13.2-4-16.8z"/>
        <path fill="#ccd1d9" d="M235.8 474v27.3a10.7 10.7 0 1 0 21.3 0V474h-21.3z"/>
        <path fill="#ec87c0" d="M342.7 374.7c0 80.2-96.2 115.9-96.2 115.9s-96.3-35.7-96.3-115.9c0-54.1 43.1-98 96.3-98a97.1 97.1 0 0 1 96.2 98z"/>
        <path fill="#e6e9ed" d="M177.3 442.8a192 192 0 0 0 69.2 47.8s40.6-15 69-47.7a142 142 0 0 0-138.2 0z"/>
        <path fill="#fff" d="M246.5 276.7c-3.6 0-7.2.2-10.7.6a97.4 97.4 0 0 1 85.5 97.4c0 63.6-60.5 99.2-85.5 111.2 6.5 3.2 10.7 4.7 10.7 4.7s96.2-35.7 96.2-115.9a97 97 0 0 0-96.2-98z" opacity=".2"/>
    </symbol>
    <symbol id="icon_salad" viewBox="0 0 55.6 55.6">
        <path fill="#88c057" d="M42 27.1a8 8 0 0 0 5-.4 8.7 8.7 0 0 0 5.4-7.7c0-3.7-2.3-7-5.7-8.1-.2-3.5-3-6.2-6.5-6.2 0-.5 0-1-.2-1.6a4.2 4.2 0 0 0-7-1.8C32 .4 31 0 29.7 0A4.7 4.7 0 0 0 25 4.7a6.1 6.1 0 0 0-5.5 7.6 7 7 0 0 0-5.8 10.6 5.2 5.2 0 0 0 1.5 8.8c-.2 9.3 3 14.7 9.4 22a60.8 60.8 0 0 0 .5.5c2.6 3 8.6.7 7.3-3C25.6 31 46.8 33.8 46.8 33.8s.6-6-4.9-6.3V27z"/>
        <path fill="#659c35" d="M25.2 54.2H25l-.4-.5c-6.3-7.3-9.6-12.7-9.4-22a5.2 5.2 0 0 1-1.5-8.8 7 7 0 0 1 5.8-10.6 6.1 6.1 0 0 1 3.6-7.1l-.5-1.5c-1.3-2.4-3.4-4-5.4-3.6-1.7.2-2.8 1.6-3.3 3.3-1.4-.9-2.9-1.2-4.2-.7-3 1-4 5.2-2.2 9.1-3.2 1.6-4 6.1-2 10.2l1 1.6c-3.5 1.5-4.5 6-2.2 9.8a9.7 9.7 0 0 0 2.7 3c-.5 1.2-.4 2.6.4 4 1 1.8 3 2.9 4.9 2.9 3.3 6.4 7.3 9 13.4 11.5h.2c-.3-.1-.6-.3-.8-.6z"/>
        <path fill="#659c35" d="m27.5 24.4.1-.4a22 22 0 0 1 2.5-4.6 14.5 14.5 0 0 1 8.4.6 1 1 0 0 0 .4-1.9c-.2 0-3-1.2-7-1 2-2 3.7-2.9 4-3 1.4-.7 3.6.2 4.3.6l.5.1a1 1 0 0 0 .5-1.8c-.1 0-2.4-1.4-4.7-1.1.2-.8.6-1.6.9-1.9a1 1 0 1 0-1.6-1.2 7 7 0 0 0-1.4 3.8 21.7 21.7 0 0 0-8.3 10c-2.7-1.9-2.2-5.2-2.2-5.4a1 1 0 0 0-2-.3c-.3 1.8.1 5.6 3.5 7.6a29.5 29.5 0 0 0-1.5 8.2c-.1 2.1 0 4.5.4 7.1a5 5 0 0 1-2-1.7 1 1 0 0 0-1.7.9c0 .1 1.2 2.3 4 3.2.7 4 2 8.4 4.1 13.3.7 0 1.4-.2 2-.5a63.9 63.9 0 0 1-4.3-13.8c-.5-3.1-.7-5.8-.6-8.3 1.4-2.3 5.6-2.4 5.6-2.4a1 1 0 0 0 0-2c-.2 0-3 0-5.3 1.4a25.7 25.7 0 0 1 1.4-5.5z"/>
    </symbol>
    <symbol id="icon_seedling" viewBox="0 0 128 128">
        <path fill="#99c23b" d="m67 48-1 19s4 10 3 25c-1 14-5 22-6 24s-4 6 0 7h14c3-1 4-7 5-10 1-5 1-16-1-27l-5-23-9-15z"/>
        <path fill="#99c23b" d="M67 45s4-13 14-23c9-10 19-13 27-14h13l1 4c0 11 1 24-12 36-13 14-22 16-32 17-11 1-9-4-9-4l-2-16z"/>
        <path fill="#99c23b" d="M3 37c0 2 9 23 28 30 20 7 39 0 39 0l2-19-5-3S57 34 46 30c-12-4-25-4-34 0-6 3-9 6-9 7z"/>
        <path fill="#e6dc9f" d="M87 31C77 42 73 53 72 56s1 2 2 1l16-22 20-19c1-1 0-3-1-2-2 1-13 5-22 17zM41 41c-13-5-23-4-25-3-2 0-2 3 0 3s13 1 25 6c13 4 22 11 24 12s3-1 1-2c-1-2-10-11-25-16z"/>
    </symbol>
    <symbol id="icon_squash" viewBox="0 0 512 512">
        <g fill="#ffc477">
          <path d="M469 144c-30-43-70-66-113-66-19 0-36 4-53 12l-2-1 49-49a23 23 0 0 0-33-33l-71 71c-13 2-26 6-37 12-17-8-35-12-53-12-43 0-83 23-113 66-28 41-43 94-43 151s15 110 43 150c30 43 70 67 113 67 18 0 36-4 53-12a98 98 0 0 0 95 0c16 8 33 12 52 12 43 0 83-24 113-67 28-40 43-94 43-150 0-57-15-110-43-151z"/>
          <path d="M469 144c-30-43-70-66-113-66-19 0-36 4-53 12l-2-1a101 101 0 0 0-45-11 95 95 0 0 0-47 12c-17-8-35-12-53-12-43 0-83 23-113 66-28 41-43 94-43 151s15 110 43 150c30 43 70 67 113 67 18 0 36-4 53-12a98 98 0 0 0 95 0c16 8 33 12 52 12 43 0 83-24 113-67 28-40 43-94 43-150 0-57-15-110-43-151z"/>
        </g>
        <path fill="#a78966" d="m277 80 24 9 49-49a23 23 0 0 0-33-33l-71 71a95 95 0 0 1 31 2z"/>
        <path fill="#cc7400" d="M156 512c18 0 36-4 53-12a123 123 0 0 1-41-36c-32-39-52-100-52-169 0-70 20-130 52-170a153 153 0 0 1 41-35c-17-8-35-12-53-12-43 0-83 23-113 66-28 41-43 94-43 151s15 110 43 150c30 43 70 67 113 67z"/>
        <path fill="#ffb655" d="M344 125a153 153 0 0 0-41-35l-2-1a101 101 0 0 0-45-11v434c17 0 32-4 47-12a123 123 0 0 0 41-36c32-39 52-100 52-169 0-70-20-130-52-170z"/>
        <path fill="#ee8700" d="M246 78c-13 2-26 6-37 12a123 123 0 0 0-41 35c-32 40-52 100-52 170 0 69 20 130 52 169a153 153 0 0 0 41 36c14 8 30 12 47 12V78h-10z"/>
    </symbol>
    <symbol id="icon_tomato" viewBox="0 0 51.7 51.7">
        <path fill="#88c057" d="M40.5 8.5c-2.6-1.7-7.4-4-12-1.9-.5.2-1 0-1-.6V1.8C27.5.8 27 0 26 0h-2.2c-.8 0-1.5.8-1.5 1.8v4.5c0 .4-.3.7-.8.6-1.8-.3-6.7-1-11.4 1.8-.6.4-.2 1.4.5 1.3 2.2-.4 5-.7 7 0 .4.3.5 1 0 1.3-1.3.9-3.8 3-5.5 6.7-.3.7.5 1.2 1 .8 2.2-1.8 5.7-4.1 8.6-3.7.4 0 .6.3.6.6 0 2 0 8.8 1.7 11.3.2.4.8.4 1 0 1.1-1.4 3.4-5.2 3.3-11.1 0-.4.3-.7.7-.7 1.5 0 5 .4 7.8 3.2.4.4 1.2 0 1.1-.6a8.7 8.7 0 0 0-4.6-6.4c-.5-.3-.5-1 .1-1.2 1.2-.3 3.3-.6 6.7-.5.7 0 1-.9.4-1.2z"/>
        <path fill="#d13834" d="m41.2 10-.3-.1-1.2-.2h-.4c-3 0-4.7.2-5.8.5-.6.1-.7.9-.2 1.2 3.4 2 4.4 4.7 4.6 6.4 0 .6-.7 1-1.1.6a11.9 11.9 0 0 0-7.8-3.2c-.4 0-.7.3-.7.7 0 5.9-2.2 9.7-3.2 11.1-.3.4-.9.4-1.1 0-1.7-2.6-1.7-9.3-1.7-11.3 0-.3-.2-.6-.6-.6-3-.4-6.4 2-8.5 3.7-.6.4-1.4-.2-1-.8a14 14 0 0 1 5.5-6.7c.4-.3.3-1-.2-1.2a6.5 6.5 0 0 0-1.4-.3 57.3 57.3 0 0 0-7.4 1.5A22.3 22.3 0 0 0 .4 28.5c0 12.8 11.4 23.2 25.4 23.2s25.5-10.4 25.5-23.2c0-7.6-4-14.3-10-18.5z"/>
        <path fill="#ed7161" d="M5.8 34.6a1 1 0 0 1-.9-.5C4.2 33 3.7 31.5 3.5 30a1 1 0 0 1 2-.3 7 7 0 0 0 1.2 3.4 1 1 0 0 1-1 1.5zm-1.2-7.9a1 1 0 0 1-1-1c0-1.4.4-2.7.8-4a1 1 0 0 1 1.9.8 12 12 0 0 0-.7 3.2c0 .6-.5 1-1 1z"/>
    </symbol>
    <symbol id="icon_turnip" viewBox="0 0 512 512">
        <g fill="#00a653">
          <path d="M293 104c3 5 5 11 5 17 0 15-11 28-26 34v77h-32v-77c-15-6-26-19-26-34 0-6 2-12 5-17a41 41 0 0 1-1-61l-2-9c0-19 18-34 40-34s40 15 40 34l-2 9a41 41 0 0 1-1 61z"/>
          <path d="m267 215-10 10-12 12-51-51c-14 8-31 8-42-2-5-4-8-10-10-15-12 1-23-2-32-10s-13-19-14-30l-7-5c-15-13-14-36 0-52 15-17 38-20 52-7 3 2 5 4 6 7 11-1 23 2 31 10 9 8 14 19 14 31 5 2 11 4 16 8 11 10 13 27 7 42l52 52z"/>
          <path d="m423 124-7 5c-1 11-5 22-14 30s-20 11-32 10c-2 5-5 11-10 15-11 9-27 10-41 3l-50 50-13-13-9-9 50-50c-7-16-4-33 7-44 5-4 11-6 16-8a41 41 0 0 1 45-41c1-3 3-5 6-7 14-13 37-10 52 7 14 16 15 39 0 52z"/>
        </g>
        <g fill="#008040">
          <path d="M293 104c3 5 5 11 5 17 0 15-11 28-26 34v77h-16V0c22 0 40 15 40 34l-2 9a41 41 0 0 1-1 61z"/>
          <path d="m423 124-7 5c-1 11-5 22-14 30s-20 11-32 10c-2 5-5 11-10 15-11 9-27 10-41 3l-50 50-13-13L423 72c14 16 15 39 0 52z"/>
          <path d="m267 215-10 10L89 72c15-17 38-20 52-7 3 2 5 4 6 7 11-1 23 2 31 10 9 8 14 19 14 31 5 2 11 4 16 8 11 10 13 27 7 42l52 52z"/>
        </g>
        <path fill="#b857d0" d="M355 403c-21 38-54 75-90 102l-9 7-9-7a328 328 0 0 1-107-140c-4-12-6-23-7-34a107 107 0 0 1 7-47c12-29 36-50 70-61a157 157 0 0 1 92 0c34 11 58 32 70 61 14 33 8 74-17 119z"/>
        <path fill="#9331b2" d="M355 403c-21 38-54 75-90 102l-9 7V217c4-1 24-1 46 6 34 11 58 32 70 61 14 33 8 74-17 119z"/>
    </symbol>
  </defs>
</svg>