<?xml version="1.0" encoding="UTF-8"?>
<svg xmlns="http://www.w3.org/2000/svg" xmlns:xlink="http://www.w3.org/1999/xlink" width="0" height="0">
  <defs>
    <symbol id="icon_beet" viewBox="0 0 512 512">
        <path fill="#9bf57d" d="M84 86c16-19 35 9 35 9 22-25 37 20 37 20s10-12 23-2c24 21 16 68 47 95-31-27-76-12-100-33-13-11-2-23-2-23s-47-8-26-33c0 0-30-15-14-33z"/>
        <path fill="#8ce16e" d="M84 86c-16 18 14 33 14 33-21 25 26 33 26 33s-11 12 2 23c24 21 69 6 100 33L84 86z"/>
        <path fill="#9bf57d" d="M428 86c-16-19-35 9-35 9-22-25-37 20-37 20s-10-12-23-2c-24 21-16 68-47 95 31-27 76-12 100-33 13-11 2-23 2-23s47-8 26-33c0 0 30-15 14-33z"/>
        <path fill="#8ce16e" d="M428 86c16 18-14 33-14 33 21 25-26 33-26 33s11 12-2 23c-24 21-69 6-100 33L428 86z"/>
        <path fill="#9bf57d" d="M256 0c26 0 18 35 18 35 35 0 8 44 8 44s18 0 18 18c0 35-44 62-44 106 0-44-44-71-44-106 0-18 18-18 18-18s-27-44 8-44c0 0-8-35 18-35z"/>
        <path fill="#8ce16e" d="M238 35c-35 0-8 44-8 44s-18 0-18 18c0 35 44 62 44 106V0c-26 0-18 35-18 35z"/>
        <path fill="#ff556e" d="M256 256a9 9 0 0 1-9-9V124a9 9 0 0 1 9-9 9 9 0 0 1 9 9v123a9 9 0 0 1-9 9z"/>
        <path fill="#ff6f82" d="M351 154a9 9 0 0 0-13-2c-11 9-61 46-82 76-21-30-71-67-82-75a9 9 0 0 0-11 14c33 24 81 65 84 82a9 9 0 0 0 11 7c3-1 6-4 7-7 3-17 51-58 84-82 4-3 5-9 2-13z"/>
        <path fill="#d74664" d="M256 247c-68 0-124 37-124 101 0 59 71 87 105 124 7 7 10 15 10 24v7a9 9 0 0 0 18 0v-7c0-9 3-17 10-24 34-37 105-65 105-124 0-64-56-101-124-101z"/>
        <path fill="#ff556e" d="M340 375a11 11 0 0 1-9-16l2-11c0-14-5-26-14-35a11 11 0 0 1 15-16c14 13 21 31 21 51 0 7-1 14-5 21-2 4-6 6-10 6zm-49-77h-3a113 113 0 0 0-10-3c-6-1-10-6-9-12s7-10 13-9l12 2a11 11 0 0 1-3 22z"/>
        <path fill="#be3c5a" d="M263 472c-20-37-60-65-60-124 0-34 9-60 23-77 4-4 4-10 0-15-3-3-7-5-11-4-48 12-83 46-83 96 0 59 71 87 105 124 7 7 10 15 10 24v7a9 9 0 0 0 18 0v-13c1-6 1-12-2-18z"/>
    </symbol>
    <symbol id="icon_broccoli" viewBox="0 0 498 498">
        <path fill="#4ad324" d="m365 215-26-3-62 78-4-88h-49l-4 88-62-77-26 2 84 150-7 133h79l-7-133z"/>
        <path fill="#34b515" d="m365 215-26-3-62 78-4-88h-49l9 109-75-98-26 2 104 138-27 145h79l-7-133z"/>
        <path fill="#239b02" d="m288 498-7-132 84-151-26-3-62 78-4-88h-49"/>
        <path fill="#1f7c00" d="m436 162 2-13c0-16-10-29-25-33a29 29 0 0 0-14-54c-8 0-15 4-20 8-1-16-14-28-30-28-5 0-9 1-13 4a57 57 0 0 0-88-36 57 57 0 0 0-88 36c-4-2-8-4-12-4-16 0-28 12-29 28-6-4-12-8-20-8a29 29 0 0 0-15 54c-14 4-24 17-24 33 0 5 0 9 2 13-10 4-16 14-16 25a29 29 0 0 0 40 27c8 16 25 26 44 26 15 0 29-7 38-18 4 2 9 3 14 3 9 0 16-4 22-10 6 5 14 8 23 8 8 0 16-2 22-7 7 5 14 7 23 7s16-3 23-8c5 6 13 10 21 10 5 0 10-2 14-3a50 50 0 0 0 82-8l12 2c16 0 28-13 28-29 0-11-7-21-16-25z"/>
        <path fill="#1a6000" d="m436 162 2-13c0-16-10-29-25-33a29 29 0 0 0-14-54c-8 0-15 4-20 8-1-16-14-28-30-28-5 0-9 1-13 4a57 57 0 0 0-88-36v207c8 5 14 7 23 7s17-3 23-8c6 6 13 10 22 10 4 0 9-2 13-4 9 12 23 19 39 19 19 0 35-11 44-27 3 2 7 3 11 3 16 0 29-13 29-29 0-12-7-22-16-26z"/>
        <g fill="#3b9b13">
          <ellipse cx="194.2" cy="32.7" rx="25.6" ry="12.8" transform="rotate(-45 194 33)"/>
          <ellipse cx="215.5" cy="72.2" rx="25.6" ry="12.8" transform="rotate(-45 215 72)"/>
          <ellipse cx="189.2" cy="147" rx="25.6" ry="12.8" transform="rotate(-45 189 147)"/>
          <ellipse cx="150.5" cy="94.5" rx="19.2" ry="9.6" transform="rotate(-45 151 94)"/>
          <ellipse cx="128.9" cy="148" rx="14.4" ry="7.2" transform="rotate(-45 129 148)"/>
          <ellipse cx="139.4" cy="57.2" rx="11.2" ry="5.6" transform="rotate(-45 139 57)"/>
          <ellipse cx="63.6" cy="180.1" rx="11.2" ry="5.6" transform="rotate(-45 64 180)"/>
          <ellipse cx="113.1" cy="186.1" rx="19.2" ry="9.6" transform="rotate(-45 113 186)"/>
          <ellipse cx="89.4" cy="83.4" rx="15.2" ry="8" transform="rotate(-45 89 83)"/>
          <ellipse cx="82.5" cy="138.6" rx="15.2" ry="8" transform="rotate(-45 82 139)"/>
        </g>
    </symbol>
    <symbol id="icon_cabbage" viewBox="0 0 1024 1024">
        <path fill="#558B2F" d="M469 939c-40 0-76-22-96-47-42 6-96-5-119-39-39-51-26-106-17-130l2-4 60-90c4-8 15-10 23-8l263 102c10 2 14 13 14 24l-25 138c0 5-2 7-4 9-3 2-30 38-88 43-4 2-8 2-13 2z"/>
        <path fill="#33691E" d="M523 875c-11-13-20-28-24-43l-4-13-9-32c-15-2-29-6-44-13l-11-4-13-6-11-5c-14-6-27-14-40-23-13 9-28 15-43 17h-4a165 165 0 0 1-90-4c39 47 84 49 103 45 10-3 21-5 32-11 25 17 55 30 87 38 2 5 2 7 2 11 13 41 58 77 105 73-15-7-26-18-36-30z"/>
        <path fill="#7CB342" d="M282 755c-35 0-84-8-116-53-21-32-25-90-6-128-36-32-70-100-47-171 21-66 81-96 122-106 0-32 8-71 40-103 56-57 128-43 132-43 11 3 18 13 15 24l9 501c-2 9-56 69-107 77 0-2-19 2-42 2z"/>
        <path fill="#689F38" d="M887 597c-32 32-76 34-102 30a277 277 0 0 0-414-339c-10-13-17-34-19-49v-11c0-6 0-13 2-19v-2c2-6 2-13 4-17 0 0 0-2 3-2 2-7 4-11 8-17v-2l13-18c-24 11-68 39-75 79 0 22 2 39 7 52a316 316 0 0 0 9 469h3c15-2 28-9 43-17 34 25 75 43 120 51l8 32c13 47 45 83 85 96 11 2 24 4 37 4 23 0 51-6 70-19 30 11 81 13 117-8 37-22 58-75 52-116 32-17 51-42 59-74 7-34-4-77-30-103z"/>
        <path fill="#558B2F" d="M785 627a282 282 0 0 1-183 154h-3l-29 6h-3c-12 2-23 2-34 2-8 0-17 0-25-2l-15-2h-9l9 32 4 13a320 320 0 0 0 311-156c30-2 69-30 79-75l-12 11c-30 19-66 19-90 17z"/>
        <path fill="#9CCC65" d="M747 597c-22-8-75 2-98 52-35-30-88-11-109 19-9-28-32-120-135-94l-145-13a277 277 0 0 0 538 30l-51 6z"/>
        <path fill="#7CB342" d="M450 572c-4 19-11 36-23 47-22 17-54 23-60 21a87 87 0 0 1-41 28c-6 2-12 2-21 2-11-15-19-30-26-47 9 2 18 4 26 4 4 0 6 0 9-2 15-4 27-21 34-38 10 6 23 12 40 12 9 0 17-2 28-6 9-4 17-13 23-23 3 2 7 2 11 2zm275 23c-6 0-12 2-19 4 9 30 32 58 58 67l21-39c-23-4-45-15-60-32z"/>
        <path fill="#AED581" d="M894 444c30-51 32-118 0-160-26-37-68-56-115-54 2-55-30-115-124-140-36-9-90 0-126 32-40-24-107-11-139 17-27 25-42 55-40 89 0 15 6 45 19 60a277 277 0 0 0-90 335c11 4 26 6 37 4 15-4 27-21 34-38 15 8 38 19 68 6 19-8 36-40 32-60 47 37 141-17 107-106l42-107-32-83c-4 0-8 0-12-2a277 277 0 0 1 230 392c30 2 81 2 113-42 17-24 21-71 13-105-4-17-9-30-17-38z"/>
        <path fill="#8BC34A" d="M533 192c-66 0-128 21-179 55 2 15 9 30 17 41 15-11 30-19 47-28-6 32-2 64 13 92 15 26 38 45 66 55 0 11-4 43 26 71 10 8 21 15 34 19 2-6 6-15 6-23l-8-9c-20-26-20-62-7-92h-4c-64 0-113-64-75-132h-2c22-4 43-8 66-8a277 277 0 0 1 252 392c13 2 30 2 47-2a320 320 0 0 0-299-431z"/>
        <path fill="#DCEDC8" d="M811 512a277 277 0 0 0-342-269 86 86 0 0 0 79 132c-13 30-13 67 7 92 19 26 55 28 87 26-4 17-2 47 11 57s40 11 53 7c11 42 45 66 79 72 15-36 26-76 26-117z"/>
        <path fill="#AED581" d="m661 267 11 12 13 18 4 6 4 8 5 9c2 2 2 6 4 11s2 8 2 12v15c0 5 0 11-2 15-4 22-15 41-26 54l-19 21s11-6 24-17c12-11 29-30 40-51l6-17c3-7 3-13 5-20v-19c-19-23-43-42-71-57z"/>
    </symbol>
    <symbol id="icon_carrot" viewBox="0 0 512 512">
        <g fill="#8cc153">
          <path d="M331 184a11 11 0 0 1-8-18A425 425 0 0 0 406 9a11 11 0 0 1 21 4c-1 0-4 20-17 51-11 28-33 71-71 116-2 3-5 4-8 4z"/>
          <path d="M362 170a11 11 0 0 1-8-18c54-58 140-86 144-88a11 11 0 1 1 7 21c-1 0-85 28-135 82-2 2-5 3-8 3z"/>
        </g>
        <g fill="#a0d468">
          <path d="M291 232a11 11 0 0 1-8-18L494 3a11 11 0 0 1 15 15L298 229c-2 2-5 3-7 3z"/>
          <path d="M362 170a11 11 0 0 1-5-20c52-29 118-43 121-43a11 11 0 0 1 4 21c-1 0-66 13-115 41l-5 1z"/>
        </g>
        <path fill="#fc6e51" d="M5 507c-41-41 163-272 254-363 60-60 169 49 109 109C277 344 46 548 5 507z"/>
        <path fill="#fff" d="M353 238C268 323 60 507 0 496c1 5 3 8 5 11 41 41 272-163 363-254 33-33 15-80-17-107 22 27 29 65 2 92z" opacity=".2"/>
        <path fill="#e9573f" d="M152 260c9 9 23 23 31 29a11 11 0 0 0 17-9c0-4-2-7-4-9-8-5-22-19-30-28l-14 17zm62-69c6 8 18 23 33 34a11 11 0 1 0 13-18c-15-10-27-26-32-32l-14 16zM94 329c7 8 17 18 25 23a11 11 0 0 0 17-8c0-4-2-7-4-9-8-5-19-16-24-22l-14 16zm-39 87a11 11 0 0 0 17-8c0-4-2-7-4-9l-16-14-12 18c5 5 11 11 15 13z"/>
    </symbol>
  </defs>
</svg>